<svg width="48" height="48" viewBox="0 0 48 48" fill="none" xmlns="http://www.w3.org/2000/svg">
<g clip-path="url(#clip0_3381_5065)">
<path d="M29.8521 42.3305L31.6174 42.5671C31.6576 42.5752 31.6947 42.5945 31.7246 42.6226C31.7545 42.6507 31.776 42.6866 31.7866 42.7262C31.7972 42.7659 31.7966 42.8077 31.7847 42.847C31.7729 42.8863 31.7504 42.9215 31.7196 42.9487L30.3091 44.0362L30.0726 45.8014C30.0644 45.8416 30.0452 45.8788 30.0171 45.9087C29.989 45.9386 29.9531 45.96 29.9134 45.9706C29.8738 45.9813 29.832 45.9806 29.7927 45.9688C29.7534 45.957 29.7182 45.9344 29.691 45.9037L28.6035 44.4932L26.8383 44.2567C26.798 44.2485 26.7609 44.2293 26.731 44.2011C26.7011 44.173 26.6797 44.1371 26.669 44.0975C26.6584 44.0578 26.659 44.016 26.6709 43.9767C26.6827 43.9374 26.7053 43.9022 26.736 43.875L28.1465 42.7875L28.383 41.0223C28.3912 40.9821 28.4104 40.945 28.4385 40.9151C28.4666 40.8852 28.5025 40.8637 28.5422 40.8531C28.5818 40.8425 28.6236 40.8431 28.6629 40.8549C28.7022 40.8668 28.7375 40.8893 28.7647 40.9201L29.8521 42.3305Z" fill="#FACD51"/>
<path d="M26.3184 35.965L24.5531 35.7284C24.5129 35.7202 24.4758 35.701 24.4459 35.6729C24.416 35.6448 24.3945 35.6089 24.3839 35.5692C24.3733 35.5296 24.3739 35.4878 24.3857 35.4485C24.3976 35.4092 24.4201 35.374 24.4509 35.3468L25.8613 34.2593L26.0979 32.4941C26.1061 32.4539 26.1253 32.4167 26.1534 32.3868C26.1815 32.3569 26.2174 32.3355 26.2571 32.3248C26.2967 32.3142 26.3385 32.3149 26.3778 32.3267C26.4171 32.3385 26.4523 32.3611 26.4795 32.3918L27.567 33.8023L29.3322 34.0388C29.3724 34.047 29.4096 34.0662 29.4395 34.0943C29.4694 34.1225 29.4908 34.1584 29.5015 34.198C29.5121 34.2376 29.5114 34.2795 29.4996 34.3187C29.4878 34.358 29.4652 34.3933 29.4345 34.4205L28.024 35.5079L27.7875 37.2732C27.7793 37.3134 27.7601 37.3505 27.7319 37.3804C27.7038 37.4103 27.6679 37.4318 27.6283 37.4424C27.5887 37.453 27.5468 37.4524 27.5075 37.4405C27.4682 37.4287 27.433 37.4062 27.4058 37.3754L26.3184 35.965Z" fill="#FACD51"/>
<path d="M29.1238 39.23C29.0343 39.1457 28.9699 39.0381 28.9381 38.9192C28.9062 38.8004 28.9081 38.675 28.9436 38.5572C28.979 38.4394 29.0466 38.3338 29.1387 38.2522L31.5587 36.1064L32.2064 32.9379C32.231 32.8174 32.2888 32.7061 32.3731 32.6165C32.4574 32.527 32.565 32.4627 32.6838 32.4308C32.8027 32.399 32.928 32.4009 33.0458 32.4363C33.1636 32.4717 33.2692 32.5392 33.3508 32.6313L35.4963 35.0513L38.6647 35.6997C38.7852 35.7243 38.8965 35.782 38.9861 35.8663C39.0757 35.9507 39.14 36.0583 39.1718 36.1771C39.2036 36.2959 39.2018 36.4213 39.1664 36.5391C39.1309 36.6569 39.0634 36.7625 38.9714 36.8441L36.5516 38.9898L35.9035 42.1581C35.8029 42.6492 35.0919 42.8398 34.7591 42.4647L32.614 40.0449L29.4453 39.3966C29.3248 39.372 29.2134 39.3143 29.1238 39.23Z" fill="#FACD51"/>
<path d="M29.8521 42.3305L31.6174 42.5671C31.6576 42.5752 31.6947 42.5945 31.7246 42.6226C31.7545 42.6507 31.776 42.6866 31.7866 42.7262C31.7972 42.7659 31.7966 42.8077 31.7847 42.847C31.7729 42.8863 31.7504 42.9215 31.7196 42.9487L30.3091 44.0362L30.0726 45.8014C30.0644 45.8416 30.0452 45.8788 30.0171 45.9087C29.989 45.9386 29.9531 45.96 29.9134 45.9706C29.8738 45.9813 29.832 45.9806 29.7927 45.9688C29.7534 45.957 29.7182 45.9344 29.691 45.9037L28.6035 44.4932L26.8383 44.2567C26.798 44.2485 26.7609 44.2293 26.731 44.2011C26.7011 44.173 26.6797 44.1371 26.669 44.0975C26.6584 44.0578 26.659 44.016 26.6709 43.9767C26.6827 43.9374 26.7053 43.9022 26.736 43.875L28.1465 42.7875L28.383 41.0223C28.3912 40.9821 28.4104 40.945 28.4385 40.9151C28.4666 40.8852 28.5025 40.8637 28.5422 40.8531C28.5818 40.8425 28.6236 40.8431 28.6629 40.8549C28.7022 40.8668 28.7375 40.8893 28.7647 40.9201L29.8521 42.3305Z" stroke="#E9B832"/>
<path d="M26.3184 35.965L24.5531 35.7284C24.5129 35.7202 24.4758 35.701 24.4459 35.6729C24.416 35.6448 24.3945 35.6089 24.3839 35.5692C24.3733 35.5296 24.3739 35.4878 24.3857 35.4485C24.3976 35.4092 24.4201 35.374 24.4509 35.3468L25.8613 34.2593L26.0979 32.4941C26.1061 32.4539 26.1253 32.4167 26.1534 32.3868C26.1815 32.3569 26.2174 32.3355 26.2571 32.3248C26.2967 32.3142 26.3385 32.3149 26.3778 32.3267C26.4171 32.3385 26.4523 32.3611 26.4795 32.3918L27.567 33.8023L29.3322 34.0388C29.3724 34.047 29.4096 34.0662 29.4395 34.0943C29.4694 34.1225 29.4908 34.1584 29.5015 34.198C29.5121 34.2376 29.5114 34.2795 29.4996 34.3187C29.4878 34.358 29.4652 34.3933 29.4345 34.4205L28.024 35.5079L27.7875 37.2732C27.7793 37.3134 27.7601 37.3505 27.7319 37.3804C27.7038 37.4103 27.6679 37.4318 27.6283 37.4424C27.5887 37.453 27.5468 37.4524 27.5075 37.4405C27.4682 37.4287 27.433 37.4062 27.4058 37.3754L26.3184 35.965Z" stroke="#E9B832"/>
<path d="M29.1238 39.23C29.0343 39.1457 28.9699 39.0381 28.9381 38.9192C28.9062 38.8004 28.9081 38.675 28.9436 38.5572C28.979 38.4394 29.0466 38.3338 29.1387 38.2522L31.5587 36.1064L32.2064 32.9379C32.231 32.8174 32.2888 32.7061 32.3731 32.6165C32.4574 32.527 32.565 32.4627 32.6838 32.4308C32.8027 32.399 32.928 32.4009 33.0458 32.4363C33.1636 32.4717 33.2692 32.5392 33.3508 32.6313L35.4963 35.0513L38.6647 35.6997C38.7852 35.7243 38.8965 35.782 38.9861 35.8663C39.0757 35.9507 39.14 36.0583 39.1718 36.1771C39.2036 36.2959 39.2018 36.4213 39.1664 36.5391C39.1309 36.6569 39.0634 36.7625 38.9714 36.8441L36.5516 38.9898L35.9035 42.1581C35.8029 42.6492 35.0919 42.8398 34.7591 42.4647L32.614 40.0449L29.4453 39.3966C29.3248 39.372 29.2134 39.3143 29.1238 39.23Z" stroke="#E9B832"/>
<g filter="url(#filter0_ddd_3381_5065)">
<g clip-path="url(#clip1_3381_5065)">
<rect x="5" y="12.5688" width="38.3234" height="30.7938" rx="1.35145" transform="rotate(-5.24056 5 12.5688)" fill="#6875DE"/>
<g clip-path="url(#clip2_3381_5065)">
<rect width="38.3234" height="6.5642" transform="translate(6.02246 23.72) rotate(-5.24056)" fill="white"/>
<rect x="10.25" y="25.9497" width="27.9461" height="1.35145" rx="0.675727" transform="rotate(-5.24056 10.25 25.9497)" fill="#8690E4"/>
<rect x="7.51074" y="26.2009" width="1.35145" height="1.35145" transform="rotate(-5.24056 7.51074 26.2009)" fill="#8690E4"/>
</g>
<rect x="6.77148" y="18.1367" width="35.8618" height="2.48908" rx="1.24454" transform="rotate(-5.24056 6.77148 18.1367)" fill="white"/>
<g clip-path="url(#clip3_3381_5065)">
<rect x="10.8496" y="32.4863" width="27.9461" height="1.35145" rx="0.675727" transform="rotate(-5.24056 10.8496 32.4863)" fill="#E0E2F8"/>
<rect x="39.832" y="29.2947" width="3.95783" height="2.41331" rx="1.20666" transform="rotate(-5.24056 39.832 29.2947)" fill="#EAA9E7"/>
<rect x="8.11035" y="32.7375" width="1.35145" height="1.35145" transform="rotate(-5.24056 8.11035 32.7375)" fill="#6BCB92"/>
</g>
<g clip-path="url(#clip4_3381_5065)">
<rect x="11.4492" y="39.0232" width="27.9461" height="1.35145" rx="0.675727" transform="rotate(-5.24056 11.4492 39.0232)" fill="#E0E2F8"/>
<rect x="8.70996" y="39.2744" width="1.35145" height="1.35145" transform="rotate(-5.24056 8.70996 39.2744)" fill="#6BCB92"/>
</g>
</g>
</g>
<g filter="url(#filter1_d_3381_5065)">
<path fill-rule="evenodd" clip-rule="evenodd" d="M36.6776 44.7233C36.4498 44.5709 36.1183 44.2159 35.6048 43.8209C35.3139 43.5976 34.6478 43.2153 34.4128 42.9878C34.2074 42.786 34.186 42.6727 34.1514 42.4618C34.0896 42.0867 34.3668 41.6897 34.7705 41.6011C35.0752 41.5337 35.389 41.6484 35.6742 41.7603C35.8462 41.8275 36.0834 41.9895 36.2235 42.079C36.3524 42.1607 36.3901 42.1996 36.5319 42.2998C36.7193 42.4325 36.7883 42.5059 36.6761 42.3295C36.5445 42.0598 36.3228 41.5984 36.0895 41.2024C35.9122 40.9023 35.8782 40.8572 35.7286 40.6312C35.5699 40.3904 35.4726 40.2173 35.3133 39.9592C35.2015 39.7763 34.9848 39.3988 34.888 39.1784C34.755 38.8771 34.5741 38.3743 34.6988 38.0762C34.7966 37.8427 35.1384 37.6715 35.3976 37.7126C35.7369 37.7661 36.0394 38.1367 36.1698 38.2815C36.4041 38.5419 36.6017 38.8664 36.824 39.3043C37.1068 39.8617 37.5418 40.6218 37.6028 40.7915C37.5487 40.5768 37.3535 40.1509 37.325 39.9374C37.2991 39.7438 37.3844 39.4816 37.5585 39.362C37.7059 39.261 37.8911 39.1818 38.0704 39.1624C38.2606 39.1414 38.4898 39.2084 38.5986 39.3061C38.9195 39.5952 39.1577 40.3206 39.1538 40.279C39.1337 40.049 38.9685 39.5656 39.0247 39.3242C39.0615 39.1651 39.2262 38.9793 39.3282 38.925C39.4862 38.8414 39.689 38.766 39.8761 38.7434C40.027 38.7256 40.2735 38.8324 40.3514 38.8966C40.5388 39.0526 40.7882 39.5843 40.8719 39.7719C40.9064 39.8495 40.8421 39.5349 40.9037 39.2986C41.0177 38.8599 41.8139 38.5253 42.1027 39.3142C42.2371 39.6823 42.2288 39.6661 42.3096 39.9169C42.4045 40.2115 42.4548 40.3909 42.5075 40.6092C42.5633 40.8429 42.6804 41.3739 42.6896 41.6464C42.6959 41.8338 42.6578 42.2719 42.5722 42.5549C42.5722 42.5549 42.1897 43.4645 42.2265 43.8069C42.2624 44.1488 42.2854 44.144 42.3456 44.3756C42.4056 44.6066 42.5839 44.8788 42.5839 44.8788C42.5839 44.8788 42.1459 45.0854 41.887 45.1254C41.6526 45.1613 41.2339 44.8068 41.119 44.6941C40.9607 44.5388 40.7631 44.6421 40.7261 44.8063C40.6682 45.0659 40.5185 45.5463 40.3315 45.6336C39.9663 45.8042 39.1667 46.0286 38.5463 46.2216C38.5463 46.2216 38.4661 45.6114 38.1675 45.4893C37.9461 45.3978 37.5505 45.195 37.3209 45.0954L36.6776 44.7233Z" fill="white"/>
<path fill-rule="evenodd" clip-rule="evenodd" d="M36.6776 44.7233C36.4498 44.5709 36.1183 44.2159 35.6048 43.8209C35.3139 43.5976 34.6478 43.2153 34.4128 42.9878C34.2074 42.786 34.186 42.6727 34.1514 42.4618C34.0896 42.0867 34.3668 41.6897 34.7705 41.6011C35.0752 41.5337 35.389 41.6484 35.6742 41.7603C35.8462 41.8275 36.0834 41.9895 36.2235 42.079C36.3524 42.1607 36.3901 42.1996 36.5319 42.2998C36.7193 42.4325 36.7883 42.5059 36.6761 42.3295C36.5445 42.0598 36.3228 41.5984 36.0895 41.2024C35.9122 40.9023 35.8782 40.8572 35.7286 40.6312C35.5699 40.3904 35.4726 40.2173 35.3133 39.9592C35.2015 39.7763 34.9848 39.3988 34.888 39.1784C34.755 38.8771 34.5741 38.3743 34.6988 38.0762C34.7966 37.8427 35.1384 37.6715 35.3976 37.7126C35.7369 37.7661 36.0394 38.1367 36.1698 38.2815C36.4041 38.5419 36.6017 38.8664 36.824 39.3043C37.1068 39.8617 37.5418 40.6218 37.6028 40.7915C37.5487 40.5768 37.3535 40.1509 37.325 39.9374C37.2991 39.7438 37.3844 39.4816 37.5585 39.362C37.7059 39.261 37.8911 39.1818 38.0704 39.1624C38.2606 39.1414 38.4898 39.2084 38.5986 39.3061C38.9195 39.5952 39.1577 40.3206 39.1538 40.279C39.1337 40.049 38.9685 39.5656 39.0247 39.3242C39.0615 39.1651 39.2262 38.9793 39.3282 38.925C39.4862 38.8414 39.689 38.766 39.8761 38.7434C40.027 38.7256 40.2735 38.8324 40.3514 38.8966C40.5388 39.0526 40.7882 39.5843 40.8719 39.7719C40.9064 39.8495 40.8421 39.5349 40.9037 39.2986C41.0177 38.8599 41.8139 38.5253 42.1027 39.3142C42.2371 39.6823 42.2288 39.6661 42.3096 39.9169C42.4045 40.2115 42.4548 40.3909 42.5075 40.6092C42.5633 40.8429 42.6804 41.3739 42.6896 41.6464C42.6959 41.8338 42.6578 42.2719 42.5722 42.5549C42.5722 42.5549 42.1897 43.4645 42.2265 43.8069C42.2624 44.1488 42.2854 44.144 42.3456 44.3756C42.4056 44.6066 42.5839 44.8788 42.5839 44.8788C42.5839 44.8788 42.1459 45.0854 41.887 45.1254C41.6526 45.1613 41.2339 44.8068 41.119 44.6941C40.9607 44.5388 40.7631 44.6421 40.7261 44.8063C40.6682 45.0659 40.5185 45.5463 40.3315 45.6336C39.9663 45.8042 39.1667 46.0286 38.5463 46.2216C38.5463 46.2216 38.4661 45.6114 38.1675 45.4893C37.9461 45.3978 37.5505 45.195 37.3209 45.0954L36.6776 44.7233Z" stroke="black" stroke-width="0.449072" stroke-linecap="round" stroke-linejoin="round"/>
<path d="M41.4361 43.4129L40.8008 41.4417" stroke="black" stroke-width="0.449072" stroke-linecap="round"/>
<path d="M40.2896 43.7895L39.6426 41.8132" stroke="black" stroke-width="0.449072" stroke-linecap="round"/>
<path d="M38.5195 42.1951L39.1608 44.1437" stroke="black" stroke-width="0.449072" stroke-linecap="round"/>
</g>
<path d="M11.1096 6.95616L9.37171 6.56667C9.33236 6.55502 9.29703 6.53263 9.2697 6.50201C9.24237 6.4714 9.22412 6.43377 9.21699 6.39335C9.20987 6.35294 9.21415 6.31133 9.22936 6.27322C9.24457 6.2351 9.2701 6.20198 9.3031 6.17757L10.803 5.21717L11.1925 3.47927C11.2041 3.43992 11.2265 3.40459 11.2571 3.37726C11.2877 3.34993 11.3254 3.33168 11.3658 3.32455C11.4062 3.31743 11.4478 3.32171 11.4859 3.33692C11.524 3.35213 11.5572 3.37766 11.5816 3.41066L12.542 4.91054L14.2799 5.30003C14.3192 5.31168 14.3545 5.33407 14.3819 5.36469C14.4092 5.3953 14.4275 5.43293 14.4346 5.47335C14.4417 5.51376 14.4374 5.55537 14.4222 5.59348C14.407 5.6316 14.3815 5.66472 14.3485 5.68913L12.8486 6.64953L12.4591 8.38743C12.4475 8.42678 12.4251 8.46211 12.3945 8.48944C12.3638 8.51677 12.3262 8.53502 12.2858 8.54215C12.2454 8.54927 12.2038 8.54499 12.1657 8.52978C12.1275 8.51457 12.0944 8.48903 12.07 8.45604L11.1096 6.95616Z" fill="#FACD51"/>
<path d="M14.0751 13.6055L15.813 13.995C15.8524 14.0066 15.8877 14.029 15.915 14.0596C15.9424 14.0903 15.9606 14.1279 15.9677 14.1683C15.9749 14.2087 15.9706 14.2503 15.9554 14.2884C15.9402 14.3266 15.9146 14.3597 15.8816 14.3841L14.3818 15.3445L13.9923 17.0824C13.9806 17.1217 13.9582 17.1571 13.9276 17.1844C13.897 17.2117 13.8594 17.23 13.8189 17.2371C13.7785 17.2442 13.7369 17.2399 13.6988 17.2247C13.6607 17.2095 13.6276 17.184 13.6032 17.151L12.6428 15.6511L10.9049 15.2616C10.8655 15.25 10.8302 15.2276 10.8029 15.197C10.7755 15.1663 10.7573 15.1287 10.7501 15.0883C10.743 15.0479 10.7473 15.0063 10.7625 14.9682C10.7777 14.9301 10.8033 14.8969 10.8363 14.8725L12.3361 13.9121L12.7256 12.1742C12.7373 12.1349 12.7597 12.0995 12.7903 12.0722C12.8209 12.0449 12.8585 12.0266 12.8989 12.0195C12.9394 12.0124 12.981 12.0167 13.0191 12.0319C13.0572 12.0471 13.0903 12.0726 13.1147 12.1056L14.0751 13.6055Z" fill="#FACD51"/>
<path d="M11.5649 10.1084C11.6468 10.2002 11.7015 10.313 11.7229 10.4341C11.7442 10.5553 11.7314 10.68 11.6858 10.7943C11.6403 10.9086 11.5638 11.0079 11.4649 11.0811L8.86709 13.0078L7.94564 16.1078C7.91061 16.2258 7.84342 16.3316 7.75161 16.4135C7.65981 16.4954 7.54701 16.55 7.42586 16.5714C7.30472 16.5928 7.18001 16.58 7.06574 16.5344C6.95146 16.4889 6.85213 16.4124 6.77888 16.3136L4.85247 13.7157L1.75263 12.7937C1.63471 12.7586 1.52888 12.6915 1.447 12.5997C1.36512 12.5078 1.31044 12.395 1.28908 12.2739C1.26772 12.1528 1.28052 12.0281 1.32606 11.9138C1.3716 11.7995 1.44807 11.7002 1.5469 11.6269L4.14444 9.70028L5.06621 6.6005C5.20926 6.12 5.9342 5.99218 6.23296 6.39477L8.15906 8.9924L11.2592 9.91439C11.3771 9.94939 11.483 10.0166 11.5649 10.1084Z" fill="#FACD51"/>
<path d="M11.1096 6.95616L9.37171 6.56667C9.33236 6.55502 9.29703 6.53263 9.2697 6.50201C9.24237 6.4714 9.22412 6.43377 9.21699 6.39335C9.20987 6.35294 9.21415 6.31133 9.22936 6.27322C9.24457 6.2351 9.2701 6.20198 9.3031 6.17757L10.803 5.21717L11.1925 3.47927C11.2041 3.43992 11.2265 3.40459 11.2571 3.37726C11.2877 3.34993 11.3254 3.33168 11.3658 3.32455C11.4062 3.31743 11.4478 3.32171 11.4859 3.33692C11.524 3.35213 11.5572 3.37766 11.5816 3.41066L12.542 4.91054L14.2799 5.30003C14.3192 5.31168 14.3545 5.33407 14.3819 5.36469C14.4092 5.3953 14.4275 5.43293 14.4346 5.47335C14.4417 5.51376 14.4374 5.55537 14.4222 5.59348C14.407 5.6316 14.3815 5.66472 14.3485 5.68913L12.8486 6.64953L12.4591 8.38743C12.4475 8.42678 12.4251 8.46211 12.3945 8.48944C12.3638 8.51677 12.3262 8.53502 12.2858 8.54215C12.2454 8.54927 12.2038 8.54499 12.1657 8.52978C12.1275 8.51457 12.0944 8.48903 12.07 8.45604L11.1096 6.95616Z" stroke="#E9B832"/>
<path d="M14.0751 13.6055L15.813 13.995C15.8524 14.0066 15.8877 14.029 15.915 14.0596C15.9424 14.0903 15.9606 14.1279 15.9677 14.1683C15.9749 14.2087 15.9706 14.2503 15.9554 14.2884C15.9402 14.3266 15.9146 14.3597 15.8816 14.3841L14.3818 15.3445L13.9923 17.0824C13.9806 17.1217 13.9582 17.1571 13.9276 17.1844C13.897 17.2117 13.8594 17.23 13.8189 17.2371C13.7785 17.2442 13.7369 17.2399 13.6988 17.2247C13.6607 17.2095 13.6276 17.184 13.6032 17.151L12.6428 15.6511L10.9049 15.2616C10.8655 15.25 10.8302 15.2276 10.8029 15.197C10.7755 15.1663 10.7573 15.1287 10.7501 15.0883C10.743 15.0479 10.7473 15.0063 10.7625 14.9682C10.7777 14.9301 10.8033 14.8969 10.8363 14.8725L12.3361 13.9121L12.7256 12.1742C12.7373 12.1349 12.7597 12.0995 12.7903 12.0722C12.8209 12.0449 12.8585 12.0266 12.8989 12.0195C12.9394 12.0124 12.981 12.0167 13.0191 12.0319C13.0572 12.0471 13.0903 12.0726 13.1147 12.1056L14.0751 13.6055Z" stroke="#E9B832"/>
<path d="M11.5649 10.1084C11.6468 10.2002 11.7015 10.313 11.7229 10.4341C11.7442 10.5553 11.7314 10.68 11.6858 10.7943C11.6403 10.9086 11.5638 11.0079 11.4649 11.0811L8.86709 13.0078L7.94564 16.1078C7.91061 16.2258 7.84342 16.3316 7.75161 16.4135C7.65981 16.4954 7.54701 16.55 7.42586 16.5714C7.30472 16.5928 7.18001 16.58 7.06574 16.5344C6.95146 16.4889 6.85213 16.4124 6.77888 16.3136L4.85247 13.7157L1.75263 12.7937C1.63471 12.7586 1.52888 12.6915 1.447 12.5997C1.36512 12.5078 1.31044 12.395 1.28908 12.2739C1.26772 12.1528 1.28052 12.0281 1.32606 11.9138C1.3716 11.7995 1.44807 11.7002 1.5469 11.6269L4.14444 9.70028L5.06621 6.6005C5.20926 6.12 5.9342 5.99218 6.23296 6.39477L8.15906 8.9924L11.2592 9.91439C11.3771 9.94939 11.483 10.0166 11.5649 10.1084Z" stroke="#E9B832"/>
</g>
<defs>
<filter id="filter0_ddd_3381_5065" x="0.559509" y="5.4969" width="49.8566" height="43.722" filterUnits="userSpaceOnUse" color-interpolation-filters="sRGB">
<feFlood flood-opacity="0" result="BackgroundImageFix"/>
<feColorMatrix in="SourceAlpha" type="matrix" values="0 0 0 0 0 0 0 0 0 0 0 0 0 0 0 0 0 0 127 0" result="hardAlpha"/>
<feOffset dy="1.06186"/>
<feGaussianBlur stdDeviation="0.723993"/>
<feColorMatrix type="matrix" values="0 0 0 0 0 0 0 0 0 0 0 0 0 0 0 0 0 0 0.2 0"/>
<feBlend mode="normal" in2="BackgroundImageFix" result="effect1_dropShadow_3381_5065"/>
<feColorMatrix in="SourceAlpha" type="matrix" values="0 0 0 0 0 0 0 0 0 0 0 0 0 0 0 0 0 0 127 0" result="hardAlpha"/>
<feOffset dy="0.868792"/>
<feGaussianBlur stdDeviation="2.22025"/>
<feColorMatrix type="matrix" values="0 0 0 0 0 0 0 0 0 0 0 0 0 0 0 0 0 0 0.12 0"/>
<feBlend mode="normal" in2="effect1_dropShadow_3381_5065" result="effect2_dropShadow_3381_5065"/>
<feColorMatrix in="SourceAlpha" type="matrix" values="0 0 0 0 0 0 0 0 0 0 0 0 0 0 0 0 0 0 127 0" result="hardAlpha"/>
<feOffset dy="2.31678"/>
<feGaussianBlur stdDeviation="1.83412"/>
<feColorMatrix type="matrix" values="0 0 0 0 0 0 0 0 0 0 0 0 0 0 0 0 0 0 0.14 0"/>
<feBlend mode="normal" in2="effect2_dropShadow_3381_5065" result="effect3_dropShadow_3381_5065"/>
<feBlend mode="normal" in="SourceGraphic" in2="effect3_dropShadow_3381_5065" result="shape"/>
</filter>
<filter id="filter1_d_3381_5065" x="30.9881" y="34.415" width="15.3538" height="15.7405" filterUnits="userSpaceOnUse" color-interpolation-filters="sRGB">
<feFlood flood-opacity="0" result="BackgroundImageFix"/>
<feColorMatrix in="SourceAlpha" type="matrix" values="0 0 0 0 0 0 0 0 0 0 0 0 0 0 0 0 0 0 127 0" result="hardAlpha"/>
<feOffset dy="0.598762"/>
<feGaussianBlur stdDeviation="0.778391"/>
<feColorMatrix type="matrix" values="0 0 0 0 0 0 0 0 0 0 0 0 0 0 0 0 0 0 0.32 0"/>
<feBlend mode="normal" in2="BackgroundImageFix" result="effect1_dropShadow_3381_5065"/>
<feBlend mode="normal" in="SourceGraphic" in2="effect1_dropShadow_3381_5065" result="shape"/>
</filter>
<clipPath id="clip0_3381_5065">
<rect width="48" height="48" fill="white"/>
</clipPath>
<clipPath id="clip1_3381_5065">
<rect x="5" y="12.5688" width="38.3234" height="30.7938" rx="1.35145" transform="rotate(-5.24056 5 12.5688)" fill="white"/>
</clipPath>
<clipPath id="clip2_3381_5065">
<rect width="38.3234" height="6.5642" fill="white" transform="translate(6.02246 23.72) rotate(-5.24056)"/>
</clipPath>
<clipPath id="clip3_3381_5065">
<rect width="38.3234" height="6.5642" fill="white" transform="translate(6.62207 30.2566) rotate(-5.24056)"/>
</clipPath>
<clipPath id="clip4_3381_5065">
<rect width="38.3234" height="6.5642" fill="white" transform="translate(7.22168 36.7935) rotate(-5.24056)"/>
</clipPath>
</defs>
</svg>
