<?xml version="1.0" standalone="no"?>
<!DOCTYPE svg PUBLIC "-//W3C//DTD SVG 20010904//EN"
 "http://www.w3.org/TR/2001/REC-SVG-20010904/DTD/svg10.dtd">
<svg version="1.0" xmlns="http://www.w3.org/2000/svg"
 width="260.000000pt" height="260.000000pt" viewBox="0 0 260.000000 260.000000"
 preserveAspectRatio="xMidYMid meet">
<metadata>
Created by potrace 1.14, written by Peter Selinger 2001-2017
</metadata>
<g transform="translate(0.000000,260.000000) scale(0.100000,-0.100000)"
fill="#000000" stroke="none">
<path d="M893 2334 c-45 -30 -47 -34 -190 -333 -41 -85 -75 -171 -77 -190 -4
-39 15 -94 42 -125 9 -10 96 -57 192 -103 96 -47 199 -96 228 -110 71 -35 137
-36 187 -3 31 21 50 54 127 210 155 317 157 324 118 400 -16 32 -83 90 -104
90 -2 0 -89 41 -192 91 -223 108 -264 117 -331 73z"/>
<path d="M1753 1956 c-62 -21 -81 -49 -189 -272 -81 -166 -108 -231 -112 -270
-8 -91 29 -133 178 -202 47 -22 143 -67 213 -101 144 -69 184 -75 249 -38 38
20 48 38 148 243 106 217 129 273 125 305 -13 82 -41 111 -173 175 -358 174
-377 181 -439 160z"/>
<path d="M525 1535 c-16 -8 -38 -20 -47 -28 -19 -15 -221 -427 -236 -479 -13
-48 -4 -93 30 -140 18 -26 75 -57 358 -191 149 -71 177 -76 248 -40 34 17 46
38 151 248 112 226 131 283 117 339 -12 47 -59 88 -151 131 -49 24 -152 72
-228 109 -145 70 -184 78 -242 51z"/>
<path d="M1365 1149 c-53 -15 -83 -56 -166 -227 -140 -288 -142 -292 -137
-343 8 -85 28 -100 277 -222 124 -60 243 -112 263 -114 50 -6 101 12 137 49
17 18 31 35 31 39 0 3 46 100 101 215 98 201 106 225 101 301 -3 41 -72 97
-182 148 -58 26 -155 72 -216 102 -113 55 -157 66 -209 52z"/>
</g>
</svg>
